<mxfile host="app.diagrams.net" modified="2020-03-15T06:38:34.759Z" agent="Mozilla/5.0 (Macintosh; Intel Mac OS X 10_13_6) AppleWebKit/537.36 (KHTML, like Gecko) Chrome/80.0.3987.132 Safari/537.36" etag="pSc48S7INDtVkxms7N2Y" version="12.8.5" type="github">
  <diagram id="KYoaPlQjk7SUyPtvkRFn" name="Page-1">
    <mxGraphModel dx="1135" dy="599" grid="1" gridSize="10" guides="1" tooltips="1" connect="1" arrows="1" fold="1" page="1" pageScale="1" pageWidth="827" pageHeight="1169" math="0" shadow="0">
      <root>
        <mxCell id="0" />
        <mxCell id="1" parent="0" />
        <mxCell id="WhgybjWcJ1UgYe079fPq-2" value="孝&lt;br style=&quot;font-size: 15px;&quot;&gt;曾外&lt;br style=&quot;font-size: 15px;&quot;&gt;孙" style="text;html=1;strokeColor=none;fillColor=none;align=center;verticalAlign=middle;whiteSpace=wrap;rounded=0;fontSize=15;" parent="1" vertex="1">
          <mxGeometry x="140" y="50" width="20" height="70" as="geometry" />
        </mxCell>
        <mxCell id="WhgybjWcJ1UgYe079fPq-3" value="" style="endArrow=none;html=1;fontSize=15;" parent="1" edge="1">
          <mxGeometry width="50" height="50" relative="1" as="geometry">
            <mxPoint x="400" y="708" as="sourcePoint" />
            <mxPoint x="400" as="targetPoint" />
          </mxGeometry>
        </mxCell>
        <mxCell id="WhgybjWcJ1UgYe079fPq-5" value="孝&lt;br style=&quot;font-size: 15px;&quot;&gt;曾&lt;br style=&quot;font-size: 15px;&quot;&gt;孙" style="text;html=1;strokeColor=none;fillColor=none;align=center;verticalAlign=middle;whiteSpace=wrap;rounded=0;fontSize=15;" parent="1" vertex="1">
          <mxGeometry x="620" y="50" width="20" height="70" as="geometry" />
        </mxCell>
      </root>
    </mxGraphModel>
  </diagram>
</mxfile>
